<svg width="20" height="20" viewBox="0 0 20 20" fill="none" xmlns="http://www.w3.org/2000/svg">
<path opacity="0.5" d="M15 5.08463C16.0834 5.19119 16.8127 5.43204 17.357 5.97636C18.3334 6.95267 18.3334 8.52399 18.3334 11.6667C18.3334 14.8094 18.3334 16.3807 17.357 17.3571C16.3808 18.3334 14.8094 18.3334 11.6667 18.3334H8.33335C5.19065 18.3334 3.61931 18.3334 2.643 17.3571C1.66669 16.3807 1.66669 14.8094 1.66669 11.6667C1.66669 8.52399 1.66669 6.95267 2.643 5.97636C3.18731 5.43204 3.9166 5.19119 5.00002 5.08463" stroke="#1C274C" stroke-width="1.5"/>
<path d="M8.33331 5H11.6666" stroke="#1C274C" stroke-width="1.5" stroke-linecap="round"/>
<path d="M9.16669 7.5H10.8334" stroke="#1C274C" stroke-width="1.5" stroke-linecap="round"/>
<path d="M6.79908 9.83257L6.19938 9.33282C5.6096 8.84132 5.3147 8.59557 5.15735 8.25962C5 7.92367 5 7.53981 5 6.77207V5.83332C5 3.86914 5 2.88705 5.61019 2.27685C6.22039 1.66666 7.20248 1.66666 9.16667 1.66666H10.8333C12.7975 1.66666 13.7796 1.66666 14.3898 2.27685C15 2.88705 15 3.86914 15 5.83332V6.77207C15 7.53981 15 7.92367 14.8427 8.25962C14.6853 8.59557 14.3904 8.84132 13.8006 9.33282L13.2009 9.83257C11.6704 11.108 10.9051 11.7457 10 11.7457C9.09492 11.7457 8.32961 11.108 6.79908 9.83257Z" stroke="#1C274C" stroke-width="1.5" stroke-linecap="round"/>
<path d="M5 8.33334L6.79908 9.83259C8.32961 11.108 9.09492 11.7458 10 11.7458C10.9051 11.7458 11.6704 11.108 13.2009 9.83259L15 8.33334" stroke="#1C274C" stroke-width="1.5" stroke-linecap="round"/>
</svg>
